<svg version="1" xmlns="http://www.w3.org/2000/svg" width="488" height="488" viewBox="0 0 366 366"><path d="M177 4.7C100.8 8 36.2 57 13.2 129.1c-3.6 11.2-6.8 26.3-7.7 36.9-.8 8.2-.8 28.4 0 34 .2 1.9.7 5.7 1.1 8.5.3 2.7.8 5.9 1 7 .2 1.1.6 3.2.9 4.8 3.3 17.9 15.1 45.5 26.7 62.4 30.6 44.4 74.7 71 129.3 77.8 5.7.7 28.4.7 36.5 0 7.9-.7 24.2-4.1 33.7-6.9 56.5-16.9 102.2-62.6 119-119 1.7-5.6 1.5-4.7 4.2-17.6 4.9-23.4 4.5-47.6-1.3-75-2.5-11.6-9.8-30.8-16.3-43-23.2-43.2-63.6-75.4-110.4-88-14.8-4-21.9-5-44.4-6.3-1.6-.1-5.5-.1-8.5 0zm24 7.7c3 .4 6.7.8 8.3 1.1 1.5.3 5.5 1 8.9 1.6 14.8 2.6 41.1 13 54.8 21.7 28.1 17.9 50.2 42.3 64 70.7 5 10.4 10.3 24.5 12.1 32.4 1.7 7.3 1.9 8.4 2.5 12.1.3 1.9.7 4.1 1 4.9 2.1 6.3 2.2 48.4 0 51.9-.2.4-.7 2.8-1 5.3-.3 2.5-1.5 7.9-2.6 12s-2.2 8.1-2.4 8.9c-.2.8-1.5 4.4-2.9 8-23.3 61.2-78.5 104-142.8 110.6-15.6 1.6-38.9.5-51.9-2.5-2.5-.5-5.6-1.2-7-1.5-5.4-1-20-6.1-29-10.1-47.2-21-82.8-63-96-113.2-1.1-4.2-2.3-9.7-2.6-12.2-.3-2.5-.8-4.9-1-5.2-.7-1.3-1.8-15.9-1.8-25.4.1-20.6 2.4-35.3 8.4-53.5C39.5 70.8 88.2 27.3 148.9 15c5.7-1.1 13.6-2.3 17.5-2.7 3.9-.3 7.2-.6 7.4-.8.5-.4 21.5.3 27.2.9z"/><path d="M182.9 33.4c-.1 3.9-.7 16.7-1.3 26.3-.2 4 0 7.3.5 7.3s1-1 1-2.3c.1-1.2.3-3.1.4-4.2.1-1.1.3-4 .3-6.5l.2-4.5 5.5.3c3.5.3 5.5 0 5.5-.7 0-.6-2-1.1-4.9-1.1-5.4 0-5.9-.5-5.6-6 .1-1.9.3-4.9.3-6.6l.2-3.1 5.5.4c3.5.3 5.5.1 5.5-.6 0-.6-1.9-1.2-4.2-1.2-2.4-.1-5.3-.3-6.5-.4-1.9-.2-2.3.3-2.4 2.9zm-17.4-1.5c-.3.6-.4 1.4-.2 1.8.5.8 1.5 8.2 2.3 15.3.2 1.9.6 5.3.9 7.5.5 3.4-.6 1.9-7.2-9.7-4.3-7.6-8.2-13.8-8.6-13.8-.7 0-.2 9.4.8 15 .2.9.8 5.9 1.5 11.3.7 5.3 1.7 9.7 2.2 9.7.9 0 .4-7.9-.8-14.5-.2-1.1-.6-4.7-1-8l-.5-6 7.6 13.2c4.2 7.3 8.1 13.3 8.7 13.3.6 0 .7-1.5.4-3.8-.3-2-.8-5.7-1.1-8.2-.4-2.5-.8-5.6-1-7-.7-4.7-1.7-12.5-1.9-14.2-.3-2.3-1.2-3.2-2.1-1.9zm10 8.8c.2 5.4.4 13.3.5 17.6.2 4.2.7 8 1.2 8.3.7.4.8-4.7.5-14.7-.3-8.5-.6-16.6-.6-18.2-.1-1.5-.5-2.7-1-2.7-.6 0-.8 4.1-.6 9.7zm30.5-5.9c-1.4 1.1-2.6 3.9-3.5 8.2-3.6 17.3-3.7 21.6-.5 24.2 4.4 3.6 11.3 1.4 12.4-4 .7-3 1.4-6.4 2.1-10.2.2-1.4.8-4.5 1.3-7 1-5.2 0-10-2.5-11.7-2.4-1.8-6.7-1.6-9.3.5zm7.7 1c2.2 1.4 3 5.4 2.1 10.1-3.2 16.3-4 19.1-6 20.2-1.1.6-3.1.8-4.4.5-4.1-1.1-4.6-3.7-2.8-13.3.9-4.9 1.8-9.9 2.1-11.3 1-5.7 5.2-8.6 9-6.2zm-72.9 16.4l.3 16.3-9.3-14c-6.4-9.7-9.3-13.4-9.6-12.1-.2 1 .3 3.7 1.1 6 .9 2.2 3.2 9.4 5.2 15.8 2 6.5 4 11.8 4.6 11.8 1.3 0 1.3.3-2.7-12.1-1.9-6.1-3.4-11.2-3.2-11.4.2-.3 3.5 4.3 7.3 10 3.7 5.8 7.2 10.5 7.6 10.5 1.3 0 1.4-1.7.9-14.4-.3-6.9-.2-12.2.1-11.8.4.4 2.3 6 4.4 12.6 2.1 6.7 4 11.5 4.5 11 1.1-1.1-9.1-33.6-10.6-34.1-.6-.2-.9 5.4-.6 15.9zm87.9-11.9c-2.2 1.5-9.7 22-9.7 26.3 0 6.3 8.5 9.8 12.7 5.1 2.3-2.5 9.3-22 9.3-25.9 0-5.2-7.9-8.8-12.3-5.5zm8.8 2.7c1.8 2 1.8 2.4.3 7.8-5.8 20-8.6 23.8-14.6 19.6-2.9-2-2.8-4.3.7-14.5 4.2-12.6 5.6-14.9 9-14.9 1.5 0 3.6.9 4.6 2zm12.1 5.3c-4.2 7.3-14.8 28.8-14.4 29.2.2.2 2.3 1.3 4.7 2.3 7.1 3.2 9.1 1.8 16.5-12 6.7-12.6 6.5-16.8-1.4-20.8l-3.6-1.8-1.8 3.1zm7.7 2.5c2.9 3.5 2.7 5.2-2.4 15-7 13.5-9.8 15.7-15.3 11.7-1.8-1.4-1.8-1.6.5-6.2 12.1-23.7 11.8-23.1 13.8-22.6 1.1.3 2.6 1.2 3.4 2.1zM104 51c-3.2 3.2-2.5 7.4 3.6 19 4.3 8.3 6.3 11.1 8.4 12 5.7 2.4 11.6-2.1 10.5-8-.7-3.9-8.7-19.3-11.8-22.8-2.6-2.8-7.9-3-10.7-.2zm10 2.7c1.2 1.5 4.2 6.8 6.6 11.8 3.9 7.8 4.4 9.4 3.5 11.7-1.4 3.6-5.5 4.7-8.3 2.2-1.1-1.1-4.4-6.6-7.3-12.4-4.3-8.7-5.1-10.9-4.2-12.5 2.3-4.4 6.6-4.7 9.7-.8zm125.3 47.6c-4.9 5-23.7 28.4-29.9 36.9-6.4 8.9-7 11.4-4.9 18.3l1.5 5-9.5 14c-5.2 7.7-10.5 15.2-11.7 16.7l-2.3 2.8-11.2-16.4c-10.8-15.7-12.4-18.8-10.4-20.1 1.9-1.1 2.3-11 .7-17.3-2.5-10-6.2-16.1-15-24.8-9.2-9.1-18.6-14.5-26.4-15.2-6.6-.5-8.5 1.7-9 10.7-.8 13.5 6.6 32 16.9 42.1 7 6.9 13.5 10.2 21.6 10.9l6.2.6 5.7 8c3.2 4.4 8.6 12 12 16.9l6.3 9-4 5.5c-13.2 18.6-23 29.9-34.8 40.5-6.9 6.2-13.2 12.5-14 13.9-1.2 2.2-1.2 3.6-.2 8.2 1.4 6.1 3.6 8.3 7.9 7.9 1.5-.1 3.9-.2 5.4-.3 4.9-.2 7.6-4.4 13.9-21.6 3.2-8.7 6.8-15.9 12.1-24.5 5.9-9.6 16.3-25 16.8-24.9.7 0 13.3 19.5 19.1 29.4 2.5 4.4 7 14.2 10 21.9 6.2 16.1 8.6 19.2 15.3 19.7 7.4.6 8.7-.1 10.7-5.8 2.7-7.9 1.4-10.8-7.9-19-16.1-14.3-20.8-19.3-31.7-33.8-6.1-8.3-11.5-15.6-11.9-16.3-.4-.7 3-6.4 8.8-14.5 16.3-22.8 14.7-21.1 20.4-21.3 9-.2 10.8-2.2 29.3-33.4 14.4-24.1 13.3-22 12-22-.5 0-8 9.9-16.5 22-11.4 15.9-16.1 21.8-17.2 21.3-1.8-.7-2.9 1.2 15.6-25.8 15.5-22.7 15.4-22.5 14.3-22.5-.4 0-8 10.1-16.8 22.5-10 14-16.6 22.3-17.5 22.2-.8-.1-1.5-.5-1.5-.9 0-.3 7-10.9 15.5-23.4 16.7-24.6 16.6-24.4 15.3-24.4-.4 0-8 10.1-16.8 22.4-8.8 12.4-16.5 22.7-17.2 23-3.7 1.5-.4-4.4 13.4-24.3 8.5-12.3 15.2-22.5 15-22.7-.2-.2-1.7 1.1-3.4 2.9zm-174 158.2c-6.2 4.2-11.3 7.7-11.3 8 0 1.1 1.9.3 6.4-2.7l4.8-3.1 2.1 2.7c1.2 1.4 3.3 2.7 4.7 2.8 2.5.2 7.9-2.7 8.1-4.3.1-.5.2-1.5.3-2.2.2-1-3.1-8.7-3.7-8.7-.1 0-5.3 3.4-11.4 7.5zm12.7-1.9c1.7 3 .7 5.1-3.3 7.4-2.5 1.4-2.8 1.3-5.4-1.3-2.4-2.4-2.6-2.9-1.2-3.7.9-.5 2.7-1.8 4-2.9 3.2-2.7 4.3-2.6 5.9.5zm210-3.9c0 .5.9 2.3 2.1 4.2 1.1 1.9 2.5 4.5 3 5.8l.9 2.4-7.3-.7c-3.9-.3-6.8-.2-6.4.2.4.4 4.1 1.1 8.2 1.5 6.5.6 8.2 1.2 12.6 4.4 2.7 2.1 5.3 3.4 5.7 3 .4-.3-.1-1.2-1-1.8-8.9-6.1-10-7.2-13-13.3-2.8-5.6-4.8-8-4.8-5.7zM81.9 264.2c-.8.7-5.4 4.6-10.2 8.7-4.9 4-8.6 7.5-8.3 7.8.3.3 2.6-1.2 5.2-3.3l4.6-3.8 1.9 2.3c2.7 3.3 2.4 4.4-2.1 8.5-4 3.6-4.7 4.6-3.2 4.6 1.4 0 8.2-7 8.2-8.4 0-.8 1.3-1.7 2.9-2.1 2.9-.6 6.4-3.8 7.3-6.5.6-1.7-1.4-6.1-3.5-7.9-1.2-.9-1.8-.9-2.8.1zm5.1 6.6c0 1.9-4.6 6.2-6.7 6.2-1 0-2.7-1-3.7-2.2-1.9-2.2-1.9-2.2 2.4-6.1l4.4-3.8 1.8 2.3c1 1.3 1.8 2.9 1.8 3.6z"/><path d="M156.7 265.7c-.4.3-.7 1.8-.7 3.1 0 2.9.6 2.7 1.2-.3.2-1.1 1.4-2.3 2.8-2.6l2.5-.7-2.6-.1c-1.4 0-2.9.2-3.2.6zm7.6 0c-2.2.8-1.4 5 1.3 7.2 2.6 2 2.9 5.1.6 5.9-.6.2-1.6-.7-2.1-2-1-2.3-1-2.3-1-.1-.1 2.2 3 4 4.9 2.8 2-1.2 1-5.4-1.6-7.1-1.6-1.1-2.4-2.4-2.2-3.7.4-3 2.6-3.3 3.8-.5l1 2.3-.3-2.5c-.2-2.4-2-3.4-4.4-2.3zm7.5.4c1.4.5 2 1.3 1.6 2-.4.8-.3.9.5.5.6-.4.9-1.1.6-1.6-.3-.5.5-1.1 1.7-1.3 1.3-.2.3-.5-2.2-.5-3.7-.1-4.1.1-2.2.9zm13.9-.4c-.4.3-.7 1.3-.7 2.2 0 1.1.3 1 1.5-.5 1.2-1.6 1.6-1.7 2.4-.5 1.1 1.7.5 3.7-2.1 7-2.8 3.6-2.4 6.1 1 6 2.3-.2 2.4-.2.5-.6-2.4-.5-3.1-2.7-1.2-3.9.6-.3 1.8-2.2 2.6-4.1 1.1-2.7 1.1-3.8.2-4.9-1.2-1.5-3.1-1.8-4.2-.7zm6.8.4c-.9 1.3-.8 9.3.1 12.1.8 2.5 3.4 1.9 4.5-1 .6-1.5.5-2.1-.1-1.7-.6.3-1 1.3-1 2.1 0 .9-.6 1.4-1.2 1.1-1.7-.5-1.8-11.9-.1-12.4.6-.2 1.4.6 1.6 1.9.5 2.1.5 2.1.4-.2-.2-2.6-3-3.9-4.2-1.9zm7.1.5c-.9 2.4-.7 3.1.4 1.4.7-1.1 1 .6 1.1 5.5.1 3.8.4 5.7.6 4.2.4-2.3.9-2.8 2.4-2.4 1.6.4 1.8.3.9-.8s-.7-1.9 1.2-3.8c1.2-1.3 2.4-3.1 2.4-4 .3-2.9-1-1.9-3 2.4-2.7 5.6-3.6 5.7-3.6.5 0-4.6-1.2-6.1-2.4-3zm75.1 5.2c-1.5 1.5-2.7 3.1-2.7 3.4 0 .3 4.5 4.5 10 9.3 5.5 4.7 10 8.2 10 7.7 0-.5-1.8-2.6-4-4.6-4.1-3.7-4.4-5.8-.9-7.6 2.8-1.5 3.6-1.3 7.9 2.6 2.2 2 4 3.2 4 2.6 0-1.7-6.9-7.2-9.1-7.2-1.3 0-2.4-1-3.1-3-1-2.9-5.1-6-8.1-6-.7 0-2.5 1.3-4 2.8zm9.2 1.3c2.4 2.3 2.6 4.6.7 7.1-1.8 2.4-2.5 2.3-7.1-1.6l-4-3.4 2.3-2.5c2.6-2.7 4.8-2.6 8.1.4z"/><path d="M207.7 270.7c-1 .9-.9 2.3.1 2.3.5 0 .9-.7.9-1.5 0-1.7-.1-1.8-1-.8zM173 272c0 .5.5 1 1.1 1 .5 0 .7-.5.4-1-.3-.6-.8-1-1.1-1-.2 0-.4.4-.4 1zm23.6.7c-.6 1.4-.5 1.5.5.6.7-.7 1-1.5.7-1.8-.3-.3-.9.2-1.2 1.2zm-40.6.1c0 .5 1.4.7 3 .4 1.7-.2 3-.6 3-.8 0-.2-1.3-.4-3-.4-1.6 0-3 .4-3 .8zm-73.2 10.3c-4.9 4.9-8.8 9.3-8.8 9.7 0 1.2 5.9 6.6 6.5 6.1.3-.3-.9-1.8-2.5-3.4l-3-2.9 3.7-3.8c2-2.1 4.2-3.8 4.8-3.8.5 0 1.9 1.1 2.9 2.5s2.4 2.5 2.9 2.5c.6 0-.3-1.5-2.1-3.3l-3.2-3.3 3.9-3.8c3.9-3.8 4-3.9 6.5-2.2 1.5.9 2.6 2.1 2.6 2.6 0 .6.5 1 1.2 1s-.3-1.6-2.2-3.5c-1.9-1.9-3.6-3.5-3.9-3.4-.4 0-4.5 4-9.3 9zm124.4-6.9c.5 3.5 1.5 4.6 1.4 1.4-.1-1.4-.5-2.9-1-3.3-.4-.4-.6.4-.4 1.9zm-51.1 1c-.1 2.5.2 2.8 3.2 2.7 2.9-.2 2.9-.2.5-.6-1.8-.3-2.8-1.2-3.1-2.6-.4-1.8-.5-1.7-.6.5zm111 2.8c-1.7 1.7-3.1 3.4-3.1 3.8.1.4 4.1 4.9 8.9 10l8.9 9.3 3.6-3.2c2-1.7 3.4-3.4 3.1-3.7-.3-.3-1.9.8-3.6 2.4l-3 2.9-4.1-4.4-4-4.5 3.4-2.8c1.8-1.5 2.8-2.8 2.3-2.8-.6 0-2.2 1.1-3.6 2.4l-2.6 2.4-3.8-3.8c-3.5-3.6-4.3-7-1.6-7 .6 0 1.5-.9 2.1-2 1.5-2.7.8-2.5-2.9 1zM91.6 292.1c-4.2 5.5-7.6 10.5-7.4 11 .2.6 2.8-2.2 5.7-6.1 3-3.9 5.5-6.9 5.7-6.7.2.2-1.2 4.2-3.1 9-1.8 4.8-3 8.7-2.5 8.7.6 0 9.9-6.4 14.8-10.3 2.4-1.9 1.2.1-4.3 6.9-3 3.8-5 7.1-4.4 7.3.6.2 1.5-.3 2-1 1.2-2.1 3.8-5.5 9.6-12.8 2.9-3.6 4.9-6.7 4.3-6.9-.5-.2-4.9 2.6-9.7 6.2-4.8 3.5-8.9 6.1-9.1 5.6-.2-.4 1.5-5.2 3.8-10.5 2.2-5.4 4-9.9 4-10.1 0-1.8-2.8 1.1-9.4 9.7zm170.1-7.4c-.3.4 1.5 5.3 3.9 10.7 2.4 5.5 4.3 10 4.2 10.2-.2.1-4.3-2.9-9.1-6.8-4.9-3.8-9.1-6.7-9.4-6.4-.4.3.5 1.4 1.8 2.5 1.3 1 6 4.8 10.4 8.5 9.8 8.1 11.2 8.5 8.1 2-.8-1.6-3.1-7-5.1-11.9-4.1-9.9-4.1-10-4.8-8.8zm-153 17.9c-7.2 11.1-8.4 13.4-7.1 13.4 1.2 0 14.7-21.7 14.2-22.9-.1-.5-3.4 3.8-7.1 9.5zm139.3-8.2c0 .3 2.2 3.7 4.8 7.8 2.6 4 5.8 9 7.1 11 1.2 2.1 2.7 3.8 3.3 3.8 1 0-.3-2.3-8.5-15.3-4.2-6.5-6.7-9.2-6.7-7.3zm-135.9 10.8c-2.8 5.7-5.1 11.1-5.1 12 0 1 1.2 2.5 2.6 3.5 2.3 1.5 2.9 1.5 5.1.2 2.6-1.5 14.2-21.9 12.5-21.9-.6 0-3.4 4.5-6.3 10s-6 10.2-6.7 10.5c-2.4.9-5.2-.5-5.2-2.6 0-2 4.4-11.3 8.7-18.2 1.6-2.6 1.9-3.7 1-3.7-.8 0-3.7 4.6-6.6 10.2zm125.9-4.5c0 .7 11.7 22.2 12.5 23.1.2.2 2.5-.9 5.1-2.4 2.6-1.5 4.2-3 3.6-3.2-.7-.2-2.7.6-4.6 1.7l-3.3 2.1-5.9-11c-5.2-9.7-7.4-12.7-7.4-10.3zm-113.5 12.8c-2.7 6.9-4.5 12.8-4.2 13.2.4.3 1.2-.7 1.8-2.3.6-1.6 2.2-5.6 3.5-8.9 1.9-5 3-6.4 2.5-3.3 0 .4-.3 4.6-.6 9.5l-.5 8.8 2.2-2.9c1.3-1.5 4.2-5.3 6.6-8.3 2.3-3.1 4.2-5.3 4.2-5 0 .6-6 15.8-6.8 17.1-.2.5.1.7.8.4 1.3-.4 10.9-23.8 10.3-25.1-.5-.8-2.4 1.4-10.1 11.6-4.4 5.8-5.6 6.6-5.4 3.7.1-1.4 1.4-14.9 1.7-17.8.8-6.2-1.3-3.1-6 9.3zM231 302.8c-1.9.9-3.6 1.7-3.8 1.8-.4.2 7.1 18.2 9.4 22.6l1.4 2.7 4-1.8c2.2-1 4.4-2.2 4.8-2.6.6-.7-.2-.6-6.3 1.1-1.7.4-2.5-.4-4.2-3.9-2.4-5-2.3-5.2 2.7-7.4 1.9-.8 3-1.7 2.4-1.9-.6-.3-2.6.2-4.4 1l-3.4 1.4-2.3-5.1c-1.3-2.7-2.2-5.1-2.1-5.2.2-.1 1.8-.7 3.6-1.5 3.5-1.3 5.2-3 3-2.9-.7 0-2.9.8-4.8 1.7zm-14.2 4.9c-2.4.6-2.3 2.2 1.3 13.2 4.8 14.9 4.3 14.2 7.9 13 6.1-2.2 6.6-5 2.9-16.3-3.3-10.2-5.2-11.7-12.1-9.9zm8.2 4.1c1.8 3.9 5 14.4 5 16.4 0 1-1.3 2.4-3 3.3-3 1.5-3 1.5-4.5-2.1-.8-2-1.5-4.2-1.5-4.8 0-.6-1.1-4.1-2.4-7.8l-2.5-6.7 2.7-.9c3.5-1.2 4.7-.7 6.2 2.6zm-71.6 2.9c-.5 2.6-.9 5-.9 5.3-.1.3-.5 2.7-1 5.5-.4 2.7-1.1 5.9-1.5 7.1-.5 1.1-.5 2.7 0 3.4.7 1.2 3-6.8 3-10.6 0-1.4 1.9-1.3 6.7.1.7.2 1.5 0 1.8-.5.3-.5-1.2-1.3-3.5-1.6-4.4-.7-4.8-1.8-3-8.5 1-3.6 1.1-3.7 4.7-2.8 3.5.7 5.2.5 4.2-.5-.3-.3-2.5-.8-5.1-1.1l-4.7-.6-.7 4.8zm42.3-2.9c-1.7.3-1.8 1.1-1.3 7 .6 5.6 1.5 11.7 2.4 15.4.1.5.2 1.8.2 2.9 0 1.9.4 2.1 3.6 1.6 5-.8 6.4-2.3 6.4-7 0-5.7-2-16.3-3.4-18.2-1.2-1.7-4.7-2.4-7.9-1.7zm5.9 2c1.8 1.2 2.8 5.2 3.8 16.5.4 4.3-1.3 6.7-4.8 6.7-2.1 0-2.4-.6-3-5.8-.4-3.1-.8-6.8-1.1-8.2-1.2-7.4-1.2-8.9-.2-9.4 1.8-.7 4.1-.6 5.3.2zm-34-.3c-1.7 1.8-2.4 5.2-3 14.7-.5 8.4 1.4 11.7 6.4 11 4.4-.6 4.8-1.6 5.7-15.3.5-8.2.4-8.7-1.8-10.3-2.9-2-5.3-2-7.3-.1zm7.2 2.2c.9 1.8.8 8.3-.3 16.1-.7 5.1-4.2 7.5-7.1 5.1-1.3-1.1-1.5-2.8-1.1-10 .3-4.7 1-9.6 1.6-10.8 1.4-2.6 5.7-2.8 6.9-.4zm7.2-2c-1.8 1.3-2 2.5-2 11.1 0 5.8.5 10.7 1.3 12.2 2.7 5.4 10.7 2.4 10.7-4 0-1.7-.4-3-.9-3-.4 0-.8.8-.8 1.7 0 4.1-.4 5-2.8 6.1-1.9.9-2.7.8-4-.4-.8-.9-1.5-2.1-1.6-2.7-1-11.6-.7-17.7.7-19.1 4-4 7.4-.5 7.4 7.5 0 3.2.4 5.9.9 5.9 1.3 0 .5-12.8-.9-14.4-1.6-2.1-5.7-2.5-8-.9z"/></svg>